<?xml version="1.0" encoding="UTF-8" standalone="no"?>
<svg
   width="24"
   height="24"
   viewBox="0 0 48 48"
   fill="none"
   version="1.1"
   id="svg6"
   sodipodi:docname="bookmark.svg"
   inkscape:version="1.3.2 (091e20e, 2023-11-25, custom)"
   xml:space="preserve"
   xmlns:inkscape="http://www.inkscape.org/namespaces/inkscape"
   xmlns:sodipodi="http://sodipodi.sourceforge.net/DTD/sodipodi-0.dtd"
   xmlns="http://www.w3.org/2000/svg"
   xmlns:svg="http://www.w3.org/2000/svg"><defs
     id="defs10" /><sodipodi:namedview
     id="namedview8"
     pagecolor="#505050"
     bordercolor="#eeeeee"
     borderopacity="1"
     inkscape:pageshadow="0"
     inkscape:pageopacity="0"
     inkscape:pagecheckerboard="0"
     showgrid="false"
     inkscape:zoom="22.083334"
     inkscape:cx="3.6226415"
     inkscape:cy="14.739622"
     inkscape:window-width="1920"
     inkscape:window-height="1009"
     inkscape:window-x="-8"
     inkscape:window-y="-8"
     inkscape:window-maximized="1"
     inkscape:current-layer="svg6"
     inkscape:showpageshadow="0"
     inkscape:deskcolor="#505050" /><path
     id="path1"
     style="fill:#000000;fill-opacity:0.962656;stroke-width:0.0763823"
     d="m 13.223475,4.737222 c -5.3117277,0 -5.8362577,0.010495 -5.9636626,0.1257961 -0.1240105,0.1122259 -0.1397732,0.2600264 -0.1397732,1.3231876 -2e-7,0.6586517 0.023242,1.2206341 0.05125,1.2486418 0.028007,0.027999 2.7590111,0.05125 6.0708218,0.05125 h 6.024231 V 6.2234786 c 0,-0.9951528 -0.02603,-1.2933087 -0.111819,-1.379097 C 19.061863,4.7517226 18.168747,4.737222 13.223475,4.737222 Z m 15.990071,0 -0.04659,0.1723871 c -0.02552,0.094784 -0.04602,0.712776 -0.04659,1.3744379 v 1.2020506 h 5.8798 5.884457 L 40.865982,6.1302964 40.842688,4.7744949 35.028117,4.7558585 Z M 4.0636622,7.7143942 v 1.4396654 c 0,0.7911938 0.026394,1.4613994 0.055909,1.4909154 0.029516,0.02951 0.6477682,0.05165 1.3744379,0.04659 l 1.3185285,-0.0093 V 9.2006506 7.7143942 H 5.4380998 Z m 15.5847268,0 v 1.4489835 c 0,1.0844503 0.02152,1.4526823 0.09318,1.4815973 0.05251,0.02118 0.649674,0.03862 1.327847,0.04193 1.057555,0.0052 1.241489,-0.0082 1.281255,-0.111818 0.06108,-0.159159 0.06133,-2.3118233 0,-2.6184209 l -0.05125,-0.2422718 h -1.323188 z m 7.333442,0 c -0.920913,0.00236 -0.91682,0.022047 -0.917846,0.1723871 -9.54e-4,0.1389722 -0.01933,0.1532174 -0.0792,0.060568 -0.04931,-0.076303 -0.07377,0.3473172 -0.07455,1.2719375 -0.001,1.2586112 0.01393,1.3893622 0.135113,1.4210282 0.07352,0.01921 0.724308,0.04172 1.448984,0.04659 l 1.31853,0.0093 V 9.2053098 7.7143942 h -1.374438 c -0.171818,0 -0.325034,-3.368e-4 -0.456593,0 z m 14.280176,0 v 1.4909156 1.4909152 h 1.285914 c 0.896221,0 1.310412,-0.02917 1.374438,-0.09318 0.09861,-0.09862 0.130194,-2.0658615 0.04193,-2.5997839 L 43.9177,7.7143942 h -1.327848 z m -37.5803921,3.1355818 -1.4676201,0.0047 c -0.8086979,0.0042 -1.3858581,0.03145 -1.2812554,0.06057 0.1294494,0.03603 0.1576444,0.07198 0.093182,0.111818 -0.052089,0.0322 -0.1257175,0.03994 -0.1677277,0.01398 -0.05067,-0.03131 -0.079205,1.929985 -0.079205,5.828548 v 5.875141 l 1.4536427,0.01398 1.4489837,0.01398 v -5.963661 z m 19.0184931,0 v 1.448983 1.453643 h 1.490915 1.486257 l -0.0047,-1.453643 -0.0047,-1.448983 h -1.481596 z m 21.618276,0 v 5.954344 5.959003 h 1.448984 1.453643 v -5.884458 c 0,-3.904515 -0.02388,-5.869182 -0.07455,-5.837866 -0.04201,0.02596 -0.120289,0.01821 -0.172388,-0.01398 -0.06448,-0.03984 -0.03628,-0.07579 0.09318,-0.111818 0.104603,-0.02911 -0.467897,-0.05637 -1.276596,-0.06057 z m -3.056377,12.290735 v 1.379097 1.374438 h 1.290573 c 1.004249,0 1.306142,-0.0202 1.374438,-0.102501 0.06019,-0.07242 0.0842,-0.49871 0.06989,-1.355801 l -0.02329,-1.253302 -1.355803,-0.01863 z m -37.1983448,0.0047 V 24.4686 c 0,0.728178 0.026394,1.349589 0.055909,1.379097 0.029516,0.02946 0.6477682,0.04694 1.3744379,0.04193 l 1.3185285,-0.0093 v -1.36512 -1.36978 H 5.4380998 Z m 4.0906991,3.056377 c -0.802057,0.0047 -0.9528902,0.03034 -0.9877311,0.121139 -0.093071,0.242547 -0.053012,2.439622 0.046591,2.539215 0.075543,0.07552 0.072102,0.110357 -0.018636,0.167727 -0.073827,0.04668 0.3779981,0.07379 1.2812551,0.07455 h 1.393074 v -1.453643 -1.448984 h -1.327846 c -0.142622,0 -0.272127,-6.68e-4 -0.386707,0 z m 29.9767227,0 v 1.448984 1.453643 h 1.374439 1.374435 v -1.453643 -1.448984 h -1.374435 z m -3.056377,3.121606 v 1.383755 1.383756 l 1.41637,-0.02329 c 0.777237,-0.01231 1.411759,0.0011 1.411711,0.03261 -4.7e-5,0.03151 0.01628,0.06057 0.03727,0.06057 0.02102,0 0.03727,-0.615936 0.03727,-1.365118 0,-1.028147 -0.02112,-1.364069 -0.09318,-1.379097 -0.05251,-0.01097 -0.707959,-0.03611 -1.453643,-0.05591 z m -23.211693,0.0093 c -0.666913,0 -1.317702,0.02033 -1.448984,0.04659 l -0.237614,0.04659 v 1.346483 1.346482 l 1.448983,-0.01863 1.453643,-0.0233 v -1.374438 -1.36978 z m 2.557852,3.130923 c -0.802057,0.0047 -0.95755,0.03034 -0.99239,0.121139 -0.06324,0.164802 -0.05898,2.512844 0.0047,2.576488 0.02801,0.02803 0.646259,0.05125 1.374437,0.05125 h 1.327847 v -1.374438 -1.374438 h -1.332506 c -0.142621,0 -0.267467,-6.68e-4 -0.382047,0 z m 17.448373,0 v 1.379097 1.379097 l 1.448984,-0.01398 1.453642,-0.01398 v -1.36512 -1.365121 h -1.453642 z m -14.21029,3.056377 c -0.72513,0.0056 -0.959248,0.03208 -1.034323,0.10716 -0.147534,0.147529 -0.159903,2.516069 -0.01398,2.683648 0.07696,0.08843 0.339906,0.102599 1.355801,0.08853 l 1.25796,-0.01398 0.0233,-1.435005 0.01864,-1.430349 h -1.267278 c -0.124577,0 -0.236526,-8.04e-4 -0.340115,0 z m 11.153913,0 v 1.448984 1.453643 h 1.327845 c 1.140965,0 1.334625,-0.01737 1.374438,-0.121137 0.09105,-0.237275 0.05009,-2.591624 -0.04659,-2.688306 -0.06402,-0.064 -0.478217,-0.09318 -1.374439,-0.09318 z m -9.252996,3.130923 0.01864,1.490916 0.01398,1.486256 h 1.393075 1.388414 l 0.01398,-1.486256 0.01864,-1.490916 h -1.421028 z m 6.122073,0 v 1.490916 1.486256 h 1.374438 1.374436 v -1.486281 -1.490916 h -1.374436 z m -1.723873,3.130923 c -0.568537,0.0012 -1.11072,0.02943 -1.141481,0.0792 -0.02638,0.04275 -0.08204,0.05678 -0.121136,0.03261 -0.04289,-0.02651 -0.07059,0.498121 -0.06989,1.31853 7.87e-4,0.906489 0.02521,1.320341 0.07455,1.243982 0.04936,-0.07636 0.07843,-0.08228 0.0792,-0.01864 8.88e-4,0.07233 0.292704,0.09318 1.211368,0.09318 1.017554,0 1.228925,-0.0188 1.313871,-0.121136 0.09191,-0.110781 0.108005,-0.109465 0.158409,0.01863 0.03051,0.07759 0.05627,-0.494745 0.05591,-1.271937 -3.58e-4,-0.777189 -0.02142,-1.368933 -0.04193,-1.318528 -0.02645,0.06505 -0.0928,0.07016 -0.228296,0.01863 -0.13003,-0.04947 -0.722035,-0.07572 -1.290575,-0.07455 z" /><path
     style="fill:#fc0d00;fill-opacity:0.912863;stroke-width:0.0763823"
     d="m 22.5867,40.145829 c 0,-0.794761 -0.02075,-1.499389 -0.04637,-1.565841 -0.04017,-0.104698 -0.254104,-0.120823 -1.604029,-0.120823 h -1.557659 v -1.565839 -1.56584 l -1.546744,-0.0012 c -1.026866,-7.78e-4 -1.508234,-0.02605 -1.43217,-0.07521 0.07638,-0.04936 0.08275,-0.07443 0.01908,-0.07521 -0.07299,-8.94e-4 -0.09548,-0.342968 -0.09548,-1.452435 v -1.451262 h -1.565827 -1.56584 V 30.70633 c 0,-1.200509 -0.02228,-1.566384 -0.09548,-1.568169 -0.05251,-0.0013 -0.748548,-0.0098 -1.546744,-0.01908 l -1.451266,-0.0167 -0.02068,-1.546745 -0.02068,-1.546742 H 8.4925617 6.9283031 V 24.442993 22.877155 H 5.4006549 3.8730064 V 16.842943 10.808731 H 5.4006549 6.9283031 V 9.242892 7.6770525 h 6.2235859 6.223586 l 0.02068,1.5467441 0.02068,1.5467434 1.545168,0.02068 1.545166,0.02068 0.02075,1.545168 0.02075,1.545167 1.556073,0.02071 c 1.083285,0.01441 1.588047,-0.0058 1.661316,-0.06664 0.08278,-0.06869 0.105247,-0.403044 0.105247,-1.565837 v -1.478493 l 1.508551,-0.02071 1.508554,-0.02071 0.02075,-1.546744 0.02075,-1.5467441 h 6.031047 6.03105 l 0.02075,1.5467441 0.02075,1.546744 1.546742,0.02068 1.546745,0.02068 v 6.03263 6.032629 h -1.56584 -1.565839 v 1.565839 1.56584 h -1.528126 -1.527647 v 1.562444 1.562446 h -1.539531 c -0.84674,0 -1.569999,0.03046 -1.607239,0.0677 -0.03724,0.03724 -0.05768,0.743432 -0.04539,1.569316 l 0.02219,1.501607 -1.546745,-8.3e-5 -1.546743,-8.1e-5 v 1.527649 1.527647 h -1.565731 -1.56584 v 1.565841 1.565838 h -1.527648 -1.527649 v 1.565841 1.565838 H 24.037967 22.5867 Z M 10.441895,18.599739 c 0,-1.109468 0.02249,-1.451542 0.09548,-1.452436 0.06365,-7.8e-4 0.05729,-0.02585 -0.01908,-0.07521 -0.07606,-0.04916 0.405304,-0.07444 1.432171,-0.07521 l 1.546732,-0.0012 v -1.527624 -1.527648 h 1.518296 c 1.196607,0 1.536802,-0.0223 1.605641,-0.105247 0.06081,-0.07327 0.08106,-0.578031 0.06664,-1.661318 l -0.0207,-1.556071 h -3.208062 -3.208062 l -0.03819,1.546948 c -0.02102,0.850823 -0.06397,1.546857 -0.09548,1.546745 -0.03151,-1.13e-4 -0.7103574,-2.05e-4 -1.5085534,-2.05e-4 H 7.1574504 v 3.16987 3.169871 h 1.6422223 1.6422223 z"
     id="path23" /><path
     style="fill:#ffffff;fill-opacity:1;stroke-width:0.0763823"
     d="m 7.4574708,19.596682 c -0.02085,-0.05436 -0.02889,-1.318869 -0.01784,-2.810016 l 0.02008,-2.711176 1.413075,-0.04081 1.4130752,-0.04081 -1.3748842,-0.03365 -1.374883,-0.03365 1.336692,-0.0209 c 0.831621,-0.013 1.4016302,-0.05469 1.5085532,-0.110311 0.169215,-0.08803 0.171861,-0.112129 0.171861,-1.565954 v -1.47655 h 2.902532 2.902532 v 1.404574 1.404574 l -0.266829,0.05006 c -0.146756,0.02753 -0.791233,0.04695 -1.43217,0.04315 -0.640938,-0.0038 -1.208307,-0.0053 -1.26082,-0.0034 -0.07236,0.0027 -0.09948,0.359595 -0.112017,1.473901 l -0.01653,1.470362 -0.0433,-1.451267 c -0.05236,-1.754786 -0.08534,-1.759832 -0.07648,-0.01169 0.0044,0.875665 -0.0219,1.321044 -0.08243,1.393979 -0.06915,0.08332 -0.388618,0.110884 -1.435386,0.123827 l -1.346435,0.01665 1.527649,0.04308 1.527648,0.04308 -1.540497,0.01665 c -0.847273,0.0092 -1.594866,0.03751 -1.661318,0.06301 -0.104085,0.03994 -0.120821,0.240049 -0.120821,1.444558 v 1.398195 l -1.2615702,0.0098 c -0.968763,0.0074 -1.270374,-0.01336 -1.2995,-0.08917 z"
     id="path24" /></svg>
