<?xml version="1.0" encoding="UTF-8" standalone="no"?>
<svg
   width="24"
   height="24"
   viewBox="0 0 48 48"
   fill="none"
   version="1.1"
   id="svg5"
   sodipodi:docname="firefoxview-close.svg"
   inkscape:version="1.3.2 (091e20e, 2023-11-25, custom)"
   xml:space="preserve"
   xmlns:inkscape="http://www.inkscape.org/namespaces/inkscape"
   xmlns:sodipodi="http://sodipodi.sourceforge.net/DTD/sodipodi-0.dtd"
   xmlns="http://www.w3.org/2000/svg"
   xmlns:svg="http://www.w3.org/2000/svg"><defs
     id="defs5" /><sodipodi:namedview
     id="namedview5"
     pagecolor="#505050"
     bordercolor="#eeeeee"
     borderopacity="1"
     inkscape:showpageshadow="0"
     inkscape:pageopacity="0"
     inkscape:pagecheckerboard="0"
     inkscape:deskcolor="#505050"
     inkscape:zoom="23.953242"
     inkscape:cx="11.939929"
     inkscape:cy="14.006455"
     inkscape:window-width="1920"
     inkscape:window-height="1009"
     inkscape:window-x="-8"
     inkscape:window-y="-8"
     inkscape:window-maximized="1"
     inkscape:current-layer="svg5" /><path
     id="rect6"
     style="fill:#00e8fe;fill-opacity:1;stroke-width:2.70461"
     d="M 7.4500924,2.0461487 V 16.736634 H 3.7787918 V 24 H 0.1867276 v 7.226388 h 0.010565 v 0.19545 h 7.0150908 v 3.518111 h 3.8720326 v 3.671299 h 7.247518 v 3.481134 h 0.269405 3.25927 v 3.861469 h 0.163756 3.951271 0.163754 v -3.861469 h 3.259272 0.269405 v -3.481134 h 7.247516 v -3.671299 h 3.872035 v -3.533957 h 7.025654 V 29.689195 24 H 44.221208 V 16.736634 H 40.549907 V 2.0461487 h -0.242992 -3.391332 -0.364488 v 3.7082788 h -3.465286 -0.0053 V 9.3464916 H 29.366966 V 13.075899 H 18.633033 V 9.3464916 H 14.919474 V 5.7544275 h -0.0053 -3.465285 V 2.0461487 H 11.0844 7.6930704 Z M 11.448905,24.042259 h 3.111361 v 3.428308 h -3.47585 v -3.39133 h 0.364489 z m 21.990828,0 h 3.111362 v 0.03698 h 0.364488 v 3.39133 h -3.47585 z M 14.67648,27.634324 h 3.655454 v 3.549804 H 14.67648 Z m 14.991587,0 h 3.655452 v 3.549804 h -3.655452 z" /></svg>
