<?xml version="1.0" encoding="UTF-8" standalone="no"?>
<svg
   width="172"
   height="42"
   version="1.1"
   id="svg4"
   sodipodi:docname="firefox-wordmark.svg"
   inkscape:version="1.3.2 (091e20e, 2023-11-25, custom)"
   xmlns:inkscape="http://www.inkscape.org/namespaces/inkscape"
   xmlns:sodipodi="http://sodipodi.sourceforge.net/DTD/sodipodi-0.dtd"
   xmlns="http://www.w3.org/2000/svg"
   xmlns:svg="http://www.w3.org/2000/svg"
   xmlns:rdf="http://www.w3.org/1999/02/22-rdf-syntax-ns#"
   xmlns:cc="http://creativecommons.org/ns#"
   xmlns:dc="http://purl.org/dc/elements/1.1/">
  <metadata
     id="metadata10">
    <rdf:RDF>
      <cc:Work
         rdf:about="">
        <dc:format>image/svg+xml</dc:format>
        <dc:type
           rdf:resource="http://purl.org/dc/dcmitype/StillImage" />
        <dc:title />
      </cc:Work>
    </rdf:RDF>
  </metadata>
  <defs
     id="defs8" />
  <sodipodi:namedview
     pagecolor="#ffffff"
     bordercolor="#666666"
     borderopacity="1"
     objecttolerance="10"
     gridtolerance="10"
     guidetolerance="10"
     inkscape:pageopacity="0"
     inkscape:pageshadow="2"
     inkscape:window-width="1920"
     inkscape:window-height="1009"
     id="namedview6"
     showgrid="false"
     inkscape:zoom="4.1809745"
     inkscape:cx="90.409544"
     inkscape:cy="37.909822"
     inkscape:window-x="-8"
     inkscape:window-y="-8"
     inkscape:window-maximized="1"
     inkscape:current-layer="svg4"
     inkscape:document-rotation="0"
     inkscape:showpageshadow="2"
     inkscape:pagecheckerboard="0"
     inkscape:deskcolor="#d1d1d1" />
  <path
     id="rect1"
     style="fill:#01cdff;stroke-width:1.00624;fill-opacity:1"
     d="M 98.183594 1.5273438 L 98.183594 7.7714844 L 98.183594 12.943359 L 92.601562 12.943359 L 92.601562 19.357422 L 98.183594 19.357422 L 98.183594 41.257812 L 105.77734 41.257812 L 105.77734 19.357422 L 111.35742 19.357422 L 111.35742 12.943359 L 105.77734 12.943359 L 105.77734 7.7714844 L 113.89453 7.7714844 L 113.89453 1.5273438 L 105.77734 1.5273438 L 98.183594 1.5273438 z M 0.33789062 2.734375 L 0.33789062 41.435547 L 8.7949219 41.435547 L 8.7949219 26.341797 L 25.896484 26.341797 L 25.896484 19.238281 L 8.7949219 19.238281 L 8.7949219 9.8300781 L 25.960938 9.8300781 L 25.960938 2.8125 L 8.7949219 2.8125 L 8.7949219 2.734375 L 0.33789062 2.734375 z M 31.033203 2.75 L 31.033203 10.224609 L 38.507812 10.224609 L 38.507812 2.75 L 31.033203 2.75 z M 70.976562 11.779297 L 70.976562 17.699219 L 65.894531 17.699219 L 65.894531 23.857422 L 62.365234 23.857422 L 62.365234 29.539062 L 62.425781 29.539062 L 62.425781 35.039062 L 68.525391 35.039062 L 68.525391 41.138672 L 74.683594 41.138672 L 80.542969 41.138672 L 86.34375 41.138672 L 86.34375 38.388672 L 90.708984 38.388672 L 90.708984 32.228516 L 84.548828 32.228516 L 84.548828 34.980469 L 80.542969 34.980469 L 74.683594 34.980469 L 68.583984 34.980469 L 68.583984 29.539062 L 91.544922 29.539062 L 91.544922 23.857422 L 88.376953 23.857422 L 88.376953 17.699219 L 82.816406 17.699219 L 82.816406 11.779297 L 77.134766 11.779297 L 70.976562 11.779297 z M 30.914062 12.736328 L 30.914062 41.376953 L 38.507812 41.376953 L 38.507812 12.736328 L 30.914062 12.736328 z M 43.888672 12.736328 L 43.888672 41.376953 L 51.125 41.376953 L 51.125 21.40625 L 62.306641 21.40625 L 62.306641 14.529297 L 51.125 14.529297 L 51.125 12.736328 L 43.888672 12.736328 z M 114.07422 12.853516 L 114.07422 40.419922 L 141.64258 40.419922 L 141.64258 12.853516 L 114.07422 12.853516 z M 149.04492 14.302734 L 144.02148 19.326172 L 152.09375 27.398438 L 144.02148 35.470703 L 149.04492 40.494141 L 157.11719 32.421875 L 165.18945 40.494141 L 170.21289 35.470703 L 162.14062 27.398438 L 170.21289 19.326172 L 165.18945 14.302734 L 157.11719 22.375 L 149.04492 14.302734 z M 72.052734 17.9375 L 77.134766 17.9375 L 82.216797 17.9375 L 82.216797 23.857422 L 72.052734 23.857422 L 72.052734 17.9375 z M 122.15039 20.929688 L 133.56641 20.929688 L 133.56641 32.345703 L 122.15039 32.345703 L 122.15039 20.929688 z " />
</svg>
