<?xml version="1.0" encoding="UTF-8" standalone="no"?>
<svg
   width="172"
   height="42"
   version="1.1"
   id="svg4"
   sodipodi:docname="firefox-wordmark.svg"
   inkscape:version="1.3.2 (091e20e, 2023-11-25, custom)"
   xmlns:inkscape="http://www.inkscape.org/namespaces/inkscape"
   xmlns:sodipodi="http://sodipodi.sourceforge.net/DTD/sodipodi-0.dtd"
   xmlns:xlink="http://www.w3.org/1999/xlink"
   xmlns="http://www.w3.org/2000/svg"
   xmlns:svg="http://www.w3.org/2000/svg"
   xmlns:rdf="http://www.w3.org/1999/02/22-rdf-syntax-ns#"
   xmlns:cc="http://creativecommons.org/ns#"
   xmlns:dc="http://purl.org/dc/elements/1.1/">
  <metadata
     id="metadata10">
    <rdf:RDF>
      <cc:Work
         rdf:about="">
        <dc:format>image/svg+xml</dc:format>
        <dc:type
           rdf:resource="http://purl.org/dc/dcmitype/StillImage" />
        <dc:title />
      </cc:Work>
    </rdf:RDF>
  </metadata>
  <defs
     id="defs8">
    <linearGradient
       inkscape:collect="always"
       id="56">
      <stop
         class="alt-stop"
         offset="0"
         id="stop3" />
      <stop
         class="main-stop"
         offset="1"
         id="stop853" />
    </linearGradient>
    <linearGradient
       inkscape:collect="always"
       xlink:href="#56"
       id="linearGradient857"
       x1="-41.414711"
       y1="24.386408"
       x2="172.52649"
       y2="23.371658"
       gradientUnits="userSpaceOnUse" />
  </defs>
  <sodipodi:namedview
     pagecolor="#ffffff"
     bordercolor="#666666"
     borderopacity="1"
     objecttolerance="10"
     gridtolerance="10"
     guidetolerance="10"
     inkscape:pageopacity="0"
     inkscape:pageshadow="2"
     inkscape:window-width="1920"
     inkscape:window-height="1009"
     id="namedview6"
     showgrid="false"
     inkscape:zoom="4.1809745"
     inkscape:cx="90.409545"
     inkscape:cy="37.909822"
     inkscape:window-x="-8"
     inkscape:window-y="-8"
     inkscape:window-maximized="1"
     inkscape:current-layer="svg4"
     inkscape:document-rotation="0"
     inkscape:showpageshadow="2"
     inkscape:pagecheckerboard="0"
     inkscape:deskcolor="#d1d1d1" />
  <path
     fill="context-fill #20123a"
     d="m 0.19,2.82 h 25.72 v 7 H 7.57 v 9.43 h 18.34 v 6.9 H 7.57 V 41.29 H 0.19 Z M 34.65,0.13 A 4.14,4.14 0 0 1 38.92,4.46 4.12,4.12 0 0 1 34.6,8.78 4.09,4.09 0 0 1 30.33,4.56 4.27,4.27 0 0 1 34.65,0.13 Z M 31,12.83 h 7.27 V 41.29 H 31 Z m 28.35,7.91 a 5.89,5.89 0 0 0 -3.53,-1.27 c -3,0 -4.64,1.9 -4.64,6.06 V 41.29 H 44 V 12.83 h 6.9 v 4.11 a 6.79,6.79 0 0 1 6.8,-4.37 8.69,8.69 0 0 1 4.83,1.43 z m 3,6.48 c 0,-8.17 6.06,-15 14.65,-15 8.59,0 14.59,6.06 14.59,14.49 v 3 H 69.48 c 0.79,3.58 3.58,6 7.85,6 a 7.62,7.62 0 0 0 7.06,-4.21 l 6.06,3.63 c -3,4.43 -7.27,6.75 -13.33,6.75 C 67.9,41.87 62.37,35.7 62.37,27.22 Z M 69.59,24 h 15 C 83.8,20.37 80.85,18.37 77,18.37 A 7.31,7.31 0 0 0 69.59,24 Z M 93.4,12.83 h 5.11 v -1.42 c 0,-7.75 3.27,-11 10.44,-11 h 2.53 v 6.31 h -2.06 c -3.37,0 -4.11,1.16 -4.11,4.69 v 1.42 h 6.17 v 6.54 h -6 v 21.92 h -7 V 19.37 H 93.4 Z m 19.45,14.23 a 14.56,14.56 0 0 1 14.85,-14.81 14.81,14.81 0 1 1 0,29.62 c -8.85,0 -14.85,-6.49 -14.85,-14.81 z m 22.65,0 a 7.8,7.8 0 1 0 -15.59,0 7.8,7.8 0 1 0 15.59,0 z m 16.86,-0.32 -10.27,-13.91 h 8.53 l 6.06,8.75 6.22,-8.75 h 8.38 l -10.43,13.86 11,14.6 h -8.49 l -6.83,-9.29 -6.59,9.28 h -8.48 z"
     id="path2"
     style="display:none;fill:url(#linearGradient857);fill-opacity:1" />
  <path
     id="rect1"
     style="fill:#17d1ff;stroke-width:1.00624;fill-opacity:1"
     d="M 98.183594 1.5273438 L 98.183594 7.7714844 L 98.183594 12.943359 L 92.601562 12.943359 L 92.601562 19.357422 L 98.183594 19.357422 L 98.183594 41.257812 L 105.77734 41.257812 L 105.77734 19.357422 L 111.35742 19.357422 L 111.35742 12.943359 L 105.77734 12.943359 L 105.77734 7.7714844 L 113.89453 7.7714844 L 113.89453 1.5273438 L 105.77734 1.5273438 L 98.183594 1.5273438 z M 0.33789062 2.734375 L 0.33789062 41.435547 L 8.7949219 41.435547 L 8.7949219 26.341797 L 25.896484 26.341797 L 25.896484 19.238281 L 8.7949219 19.238281 L 8.7949219 9.8300781 L 25.960938 9.8300781 L 25.960938 2.8125 L 8.7949219 2.8125 L 8.7949219 2.734375 L 0.33789062 2.734375 z M 31.033203 2.75 L 31.033203 10.224609 L 38.507812 10.224609 L 38.507812 2.75 L 31.033203 2.75 z M 70.976562 11.779297 L 70.976562 17.699219 L 65.894531 17.699219 L 65.894531 23.857422 L 62.365234 23.857422 L 62.365234 29.539062 L 62.425781 29.539062 L 62.425781 35.039062 L 68.525391 35.039062 L 68.525391 41.138672 L 74.683594 41.138672 L 80.542969 41.138672 L 86.34375 41.138672 L 86.34375 38.388672 L 90.708984 38.388672 L 90.708984 32.228516 L 84.548828 32.228516 L 84.548828 34.980469 L 80.542969 34.980469 L 74.683594 34.980469 L 68.583984 34.980469 L 68.583984 29.539062 L 91.544922 29.539062 L 91.544922 23.857422 L 88.376953 23.857422 L 88.376953 17.699219 L 82.816406 17.699219 L 82.816406 11.779297 L 77.134766 11.779297 L 70.976562 11.779297 z M 30.914062 12.736328 L 30.914062 41.376953 L 38.507812 41.376953 L 38.507812 12.736328 L 30.914062 12.736328 z M 43.888672 12.736328 L 43.888672 41.376953 L 51.125 41.376953 L 51.125 21.40625 L 62.306641 21.40625 L 62.306641 14.529297 L 51.125 14.529297 L 51.125 12.736328 L 43.888672 12.736328 z M 114.07422 12.853516 L 114.07422 40.419922 L 141.64258 40.419922 L 141.64258 12.853516 L 114.07422 12.853516 z M 149.04492 14.302734 L 144.02148 19.326172 L 152.09375 27.398438 L 144.02148 35.470703 L 149.04492 40.494141 L 157.11719 32.421875 L 165.18945 40.494141 L 170.21289 35.470703 L 162.14062 27.398438 L 170.21289 19.326172 L 165.18945 14.302734 L 157.11719 22.375 L 149.04492 14.302734 z M 72.052734 17.9375 L 77.134766 17.9375 L 82.216797 17.9375 L 82.216797 23.857422 L 72.052734 23.857422 L 72.052734 17.9375 z M 122.15039 20.929688 L 133.56641 20.929688 L 133.56641 32.345703 L 122.15039 32.345703 L 122.15039 20.929688 z " />
</svg>
