<?xml version="1.0" encoding="UTF-8" standalone="no"?>
<!-- Uploaded to: SVG Repo, www.svgrepo.com, Generator: SVG Repo Mixer Tools -->

<svg
   width="800px"
   height="800px"
   viewBox="0 0 24 24"
   fill="none"
   version="1.1"
   id="svg1"
   sodipodi:docname="folder-otherbookmarks.svg"
   inkscape:version="1.3.2 (091e20e, 2023-11-25, custom)"
   xml:space="preserve"
   xmlns:inkscape="http://www.inkscape.org/namespaces/inkscape"
   xmlns:sodipodi="http://sodipodi.sourceforge.net/DTD/sodipodi-0.dtd"
   xmlns="http://www.w3.org/2000/svg"
   xmlns:svg="http://www.w3.org/2000/svg"><defs
     id="defs1" /><sodipodi:namedview
     id="namedview1"
     pagecolor="#505050"
     bordercolor="#eeeeee"
     borderopacity="1"
     inkscape:showpageshadow="0"
     inkscape:pageopacity="0"
     inkscape:pagecheckerboard="0"
     inkscape:deskcolor="#505050"
     inkscape:zoom="0.71859726"
     inkscape:cx="413.30522"
     inkscape:cy="369.46982"
     inkscape:window-width="1920"
     inkscape:window-height="1009"
     inkscape:window-x="-8"
     inkscape:window-y="-8"
     inkscape:window-maximized="1"
     inkscape:current-layer="svg1" /><path
     id="path2"
     style="display:inline;fill:#4600be;fill-opacity:1;stroke-width:0.0536326"
     d="m 6.0876092,1.4756443 v 0.077833 H 4.5873244 V 3.1624572 H 3.407406 V 14.824872 h -0.03139 v 7.499465 H 5.6135336 V 20.36172 h 1.9815105 v -1.791895 h 1.744549 V 16.68316 h 1.8203489 v -1.915194 h 1.962542 v -1.697127 h 1.782411 v -1.943573 h 1.763517 V 9.2215566 h 1.801381 V 5.6567341 h 1.858212 V 3.3054779 H 18.469793 V 1.6747438 H 9.3490779 V 1.902071 h -0.042078 v 4.421214 c 0,2.6789457 0.020148,4.474247 0.05119,4.555878 0.073013,0.192033 -0.019756,0.209666 -1.1371634,0.215735 l -0.9519176,0.0052 -0.013022,-4.612445 -0.013098,-4.6124094 -0.027701,4.6124094 -0.027701,4.61241 -0.012947,-4.5990111 -0.00918,-3.2619954 h 0.050359 V 1.4756443 Z m 0.8863501,9.1685147 c 0.044248,0 0.080469,0.02417 0.080469,0.05367 0,0.0295 -0.036221,0.05359 -0.080469,0.05359 -0.044247,0 -0.080467,-0.02409 -0.080467,-0.05359 0,-0.0295 0.036221,-0.05367 0.080467,-0.05367 z" /><path
     style="fill:#7422ff;fill-opacity:1;stroke-width:0.0536326"
     d="m 18.430446,21.250135 c 0.03635,-0.848532 0.03156,-0.80749 0.09019,-0.771248 0.02338,0.01444 0.04605,-0.02085 0.05039,-0.07844 0.0044,-0.05759 -0.01479,-0.09069 -0.04251,-0.07358 -0.02772,0.01713 -0.05039,0.0055 -0.05039,-0.02566 0,-0.03124 0.02414,-0.0568 0.05364,-0.0568 0.07474,0 0.06738,-0.199709 -0.0091,-0.24698 -0.04151,-0.02565 -0.05175,-0.01015 -0.03027,0.04585 0.02868,0.07474 -0.06742,0.08539 -0.822191,0.09115 -0.516112,0.0039 -0.854664,-0.01391 -0.854664,-0.04507 0,-0.02838 0.04223,-0.06265 0.09386,-0.07613 0.05775,-0.01508 0.03711,-0.02691 -0.05364,-0.03074 -0.100742,-0.0043 -0.148686,-0.03597 -0.15126,-0.100073 -0.0032,-0.08026 -0.01046,-0.07832 -0.04986,0.01341 -0.02868,0.06674 -0.04752,-0.189947 -0.04986,-0.679346 -0.0028,-0.583099 0.01358,-0.793052 0.06327,-0.811505 0.03782,-0.01404 0.0035,-0.05023 -0.079,-0.08304 -0.09214,-0.03668 -0.364344,-0.04669 -0.737522,-0.02713 -0.325313,0.01706 -0.698885,0.01491 -0.830158,-0.0047 l -0.238678,-0.0358 -0.016,-0.829089 c -0.01301,-0.67378 -0.0026,-0.823933 0.05551,-0.801555 0.04051,0.0156 0.06204,-9.1e-4 0.04965,-0.03806 -0.01202,-0.03608 -0.08042,-0.07994 -0.151971,-0.09746 -0.0724,-0.01772 -0.124465,-0.06595 -0.117384,-0.108747 0.01093,-0.06573 -0.243922,-0.07455 -1.756469,-0.06076 l -1.769186,0.01612 v -0.808567 -0.808569 l 0.844713,0.01477 c 0.640988,0.01117 0.84148,0.03093 0.831306,0.08181 -0.01794,0.0897 0.01515,0.08446 0.118336,-0.01873 0.0686,-0.0686 0.1016,-0.07265 0.164729,-0.02024 0.04618,0.03833 0.07895,0.04291 0.07895,0.01105 0,-0.02995 -0.03275,-0.06703 -0.07277,-0.08238 -0.05596,-0.02148 -0.07528,-0.208628 -0.08361,-0.810228 -0.0068,-0.48908 0.0091,-0.782298 0.04239,-0.782298 0.02927,0 0.06329,0.06637 0.07557,0.147489 0.02127,0.140385 0.02273,0.139283 0.03038,-0.02288 0.0058,-0.121189 -0.01906,-0.177752 -0.08581,-0.195935 -0.05162,-0.01406 0.28616,-0.02575 0.750626,-0.02599 0.464468,-2.32e-4 0.85808,0.02156 0.874696,0.04844 0.01662,0.02688 0.05896,0.04852 0.09409,0.04805 0.04016,-5.15e-4 0.04396,-0.01546 0.01025,-0.04023 -0.06618,-0.04862 -0.09514,-0.1735 -0.04022,-0.173446 0.02212,2.3e-5 0.03189,-0.351228 0.02173,-0.780557 -0.01025,-0.429328 -0.0043,-0.837335 0.01315,-0.906682 l 0.03165,-0.126084 0.857806,0.0083 c 0.670779,0.0065 0.863779,-0.0072 0.8852,-0.06313 0.01506,-0.03929 0.03056,-0.449575 0.03446,-0.911754 0.0043,-0.512019 0.0225,-0.7669892 0.04657,-0.6526139 l 0.03951,0.1877141 0.007,-0.1683281 0.007,-0.1683271 0.87153,-0.00764 c 0.502758,-0.00439 0.879034,-0.029425 0.889264,-0.059184 0.01105,-0.031977 0.0584,-0.029832 0.124734,0.00575 0.09699,0.051904 0.101433,0.046851 0.04743,-0.054069 -0.03276,-0.061224 -0.08582,-0.1113251 -0.117896,-0.1113251 -0.03586,0 -0.04028,-0.025826 -0.01153,-0.06704 0.02573,-0.036872 0.03493,-0.7428115 0.02042,-1.568754 l -0.02637,-1.5017128 -0.02856,1.4748964 -0.02856,1.4748973 -0.0121,-1.6223866 -0.0121,-1.6223864 h 0.79875 c 0.684066,0 0.803499,0.012371 0.831815,0.086163 0.06341,0.1652567 0.03467,16.0162932 -0.02919,16.0932332 -0.08186,0.09865 -1.3653,0.102521 -1.404954,0.0043 -0.0164,-0.04067 -0.02871,-0.03074 -0.03128,0.02521 -0.0038,0.08182 0.07312,0.09414 0.679582,0.10902 l 0.683815,0.01676 -0.750855,0.01176 -0.750856,0.01176 z m -0.07854,-1.203461 c -0.05345,-0.05346 -0.249305,-0.06037 -0.216723,-0.0076 0.01513,0.02448 0.07836,0.04449 0.140532,0.04449 0.06217,0 0.09646,-0.01658 0.07619,-0.03685 z m -1.383018,-1.518497 c 0,-0.0507 -0.01704,-0.04079 -0.0461,0.02681 -0.04405,0.1025 -0.04626,0.102699 -0.04986,0.0045 -0.002,-0.05654 -0.01701,-0.08955 -0.03319,-0.07337 -0.01618,0.01618 -0.01227,0.09777 0.0087,0.18129 0.03412,0.135929 0.04244,0.140813 0.07929,0.04656 0.02265,-0.05792 0.04117,-0.141512 0.04117,-0.185759 z m 0.03435,-0.160898 c 0.01823,-0.0295 0.0076,-0.05364 -0.02365,-0.05364 -0.03124,0 -0.0568,0.02414 -0.0568,0.05364 0,0.0295 0.01069,0.05364 0.02365,0.05364 0.01301,0 0.03858,-0.02414 0.0568,-0.05364 z m -2.118483,-1.930775 c 0,-0.0295 -0.0543,-0.05194 -0.120673,-0.04986 -0.11514,0.0036 -0.115758,0.006 -0.01341,0.04986 0.05899,0.02536 0.113297,0.04779 0.120673,0.04986 0.0073,0.002 0.01341,-0.02037 0.01341,-0.04986 z m -1.786872,-2.048095 c -0.01712,-0.04278 -0.02983,-0.03008 -0.03241,0.03241 -0.0024,0.05654 0.01036,0.08822 0.02817,0.07039 0.01783,-0.01781 0.01973,-0.06408 0.0043,-0.102792 z m 1.865031,-1.48795 c 0.01698,-0.02747 0.0063,-0.06509 -0.02365,-0.08361 -0.02997,-0.01854 -0.05451,0.0039 -0.05451,0.04993 0,0.0942 0.03219,0.108082 0.07816,0.03369 z m 1.798983,-1.91083 c 0,-0.04598 -0.02241,-0.06976 -0.0498,-0.05285 -0.02739,0.01692 -0.0603,-0.02388 -0.07315,-0.09069 -0.02082,-0.108308 -0.02414,-0.10598 -0.03065,0.02155 -0.0061,0.119693 0.02554,0.165154 0.140186,0.201359 0.0073,0.0024 0.01341,-0.03339 0.01341,-0.07938 z m 1.940606,-1.9124131 c -0.03849,-0.038483 -0.06346,-0.041653 -0.06346,-0.00805 0,0.07159 0.06343,0.1350154 0.09921,0.099226 0.01524,-0.015241 -8.48e-4,-0.056276 -0.03575,-0.091182 z"
     id="path3"
     inkscape:label="path3" /><rect
     style="fill:#ffffff;fill-opacity:1;stroke-width:0.0385402"
     id="rect4"
     width="2.1587126"
     height="9.4125242"
     x="7.1884785"
     y="1.687537" /><path
     id="rect16"
     style="fill:#14d0ff;fill-opacity:1;stroke-width:0.0385402"
     d="M 3.7173085,0.10084133 V 1.8015051 h -0.081973 v 0.024915 H 1.8969594 V 21.878715 h -0.018969 v 1.848803 h 0.018969 v 0.09477 h 1.7445484 v -0.09477 H 7.225299 v -1.80138 H 9.1688719 V 20.115273 H 10.970327 V 18.36124 h 1.877183 v 1.763518 h 1.72219 v 2.030288 h 2.078239 v 1.582184 h 3.519657 v -0.0067 h 1.796638 V 3.5140619 h 0.01347 V 1.7884826 H 20.214265 V 0.10084133 Z M 5.3984764,1.8074516 H 18.308557 v 1.7066103 h 1.832166 V 22.141647 H 18.230122 V 20.117004 H 16.421891 V 18.342271 H 14.544634 V 16.654706 H 9.2352634 v 1.697051 h -1.915119 v 1.744549 H 5.4049499 v 1.782409 H 3.6415078 V 3.5311491 h 1.7569686 z" /></svg>
